<svg version="1.1" class="carac-cheval__garrot" id="Calque_1" xmlns="http://www.w3.org/2000/svg" xmlns:xlink="http://www.w3.org/1999/xlink" x="0px" y="0px"
	 width="500px" height="400px" viewBox="0 0 500 400" enable-background="new 0 0 500 400" xml:space="preserve">
<path fill="#CCCCCC" d="M72.006,384.767l0.72-2.745l5.708-4.414l-1.93-6.243l-9.572-8.055l0.27-7.393l13.457-56.277l2.738-24.259
	l8.433-11.415c0,0,12.058-26.399,11.097-33.833c-0.958-7.439-5.804-27.045-10.292-30.907c0,0,3.791,57.2-34.588,77.696
	c0,0-4.803-97.018,8.636-118.737c13.439-21.719,9.3-52.402,47.384-39.299c0,0,33.826-22.825,101.5-0.63
	c67.664,22.202,100.343-11.463,100.343-11.463l5.741-5.341c0,0,37.87-74.5,89.261-79.42c0,0,15.422-8.689,19.835-15.473l-1.963,7.18
	l6-3.483l-4.525,14.026l33.051,41.297l19.357,18.895c0,0,7.529,30.195-23.318,21.983c0,0-2.548-6.264-9.921-7.144
	c-7.372-0.893-19.286-12.432-19.286-12.432s-15.538,3.143-21.248-0.768c0,0-6.758,12.404-6.88,25.97
	c-0.117,13.568-9.604,36.973-13.835,51.622l-1.709,38.603c0,0-4.621,25.324-21.686,27.78c0,0,1.688,13.017-10.581,45.269l0.61,8.654
	c0,0,4.723,14.359-3.396,25.789l1.316,31.199c0,0,2.232,15.193,9.005,23.776c0,0,3.549,4.434,3.671,9.386l15.991,16.622
	l-28.957,0.798c0,0-6.859-15.061-0.051-15.731l-6.61-4.562c0,0-10.556,1.775-9.768-11.465l2.299-37.546
	c0,0-8.191-29.282-6.381-45.269l-2.105-26.902l-3.534-13.088c0,0-87.237,15.95-140.56-14.97l-14.326-0.528
	c0,0-13.602,9.376-17.771,13.545c-4.154,4.165-17.209,23.746-30.444,31.592c0,0-11.646,23.317-21.915,34.366
	c0,0-14.481,50.369-11.837,62.491l2.207,7.164c0,0,13.817,16.855,13.97,21.178l-26.499,0.895l-5.346-5.451"/>
<line fill="none" stroke="#999999" stroke-width="3" stroke-miterlimit="10" x1="311.625" y1="110.371" x2="311.625" y2="392.75"/>
<line fill="none" stroke="#999999" stroke-width="3" stroke-miterlimit="10" x1="287.875" y1="111.218" x2="334.125" y2="111.218"/>
<text transform="matrix(1 0 0 1 109.375 192.8706)" fill="#878787" font-family="'Georgia'" font-size="58.6019">160 cm</text>
</svg>
